<svg width="147" height="49" viewBox="0 0 147 49" fill="none" xmlns="http://www.w3.org/2000/svg">
<path d="M0.944 48V1.28H23.984C35.312 1.28 40.496 5.696 40.496 12.928C40.496 19.904 34.992 23.36 25.968 24.064C35.568 24.576 41.776 27.52 41.776 35.328C41.776 44.032 35.056 48 23.728 48H0.944ZM21.168 10.688H11.824V23.104H20.784C27.184 23.104 29.936 20.608 29.936 16.512C29.872 12.736 27.568 10.688 21.168 10.688ZM21.232 25.6H11.824V38.4H21.36C28.912 38.4 30.896 35.584 30.96 31.808C30.96 27.712 28.336 25.6 21.232 25.6ZM44.5375 26.176C44.5375 11.328 53.3695 0.639999 69.3695 0.639999C80.1855 0.639999 86.9695 5.056 91.5775 12.16L81.3375 18.944C79.0975 13.568 75.3215 10.624 68.8575 10.624C61.1775 10.624 55.7375 15.936 55.7375 24.96C55.7375 33.792 60.2175 39.04 68.0895 39.04C75.3855 39.04 79.4175 34.432 80.5695 27.2V27.072H66.6815V24.512H91.3215V48H80.5695V32.064C78.6495 41.728 73.8495 48.64 64.1215 48.64C50.8735 48.64 44.5375 38.016 44.5375 26.176ZM96.5675 1.28H109.112L119.032 35.52L121.528 44.928L124.088 35.392L134.008 1.28H146.296V48H135.352V17.92L135.608 4.544L131.896 17.984L123.192 48H119.736L111.032 18.048L107.32 4.544L107.512 17.92V48H96.5675V1.28Z" fill="black"/>
</svg>
