<svg width="50" height="50" viewBox="0 0 50 50" fill="none" xmlns="http://www.w3.org/2000/svg">
<circle cx="25" cy="25" r="25" fill="black"/>
<path d="M15.787 31.8645C17.0454 33.45 19.3876 33.45 24.0718 33.45H24.8284C29.5127 33.45 31.8548 33.45 33.1132 31.8645M15.787 31.8645C14.5286 30.279 14.9602 27.872 15.8235 23.0579C16.4374 19.6343 16.7443 17.9226 17.9097 16.9113M15.787 31.8645C15.787 31.8645 15.787 31.8645 15.787 31.8645ZM33.1132 31.8645C34.3717 30.279 33.94 27.872 33.0768 23.0579C32.4629 19.6343 32.1559 17.9226 30.9906 16.9113M33.1132 31.8645C33.1132 31.8645 33.1132 31.8645 33.1132 31.8645ZM30.9906 16.9113C29.8252 15.9 28.1596 15.9 24.8284 15.9H24.0718C20.7406 15.9 19.075 15.9 17.9097 16.9113M30.9906 16.9113C30.9906 16.9113 30.9905 16.9113 30.9906 16.9113ZM17.9097 16.9113C17.9097 16.9113 17.9097 16.9113 17.9097 16.9113Z" stroke="white" stroke-width="1.5"/>
<path d="M21.7501 19.95C22.1431 21.523 23.2036 22.65 24.4501 22.65C25.6966 22.65 26.7571 21.523 27.1501 19.95" stroke="white" stroke-width="1.5" stroke-linecap="round"/>
</svg>
