<svg width="50" height="50" viewBox="0 0 50 50" fill="none" xmlns="http://www.w3.org/2000/svg">
<circle cx="25" cy="25" r="25" fill="black"/>
<circle cx="24.9999" cy="25" r="20" transform="rotate(91.008 24.9999 25)" fill="white"/>
<path d="M16.787 33.8645C18.0454 35.45 20.3876 35.45 25.0719 35.45H25.8284C30.5127 35.45 32.8548 35.45 34.1132 33.8645M16.787 33.8645C15.5286 32.2791 15.9602 29.872 16.8235 25.0579C17.4374 21.6344 17.7443 19.9226 18.9097 18.9113M16.787 33.8645C16.787 33.8645 16.787 33.8645 16.787 33.8645ZM34.1132 33.8645C35.3717 32.2791 34.94 29.872 34.0768 25.0579C33.4629 21.6344 33.1559 19.9226 31.9906 18.9113M34.1132 33.8645C34.1132 33.8645 34.1132 33.8645 34.1132 33.8645ZM31.9906 18.9113C30.8252 17.9 29.1596 17.9 25.8284 17.9H25.0719C21.7406 17.9 20.075 17.9 18.9097 18.9113M31.9906 18.9113C31.9906 18.9113 31.9906 18.9113 31.9906 18.9113ZM18.9097 18.9113C18.9097 18.9113 18.9097 18.9113 18.9097 18.9113Z" stroke="black" stroke-width="1.5"/>
<path d="M22.7501 21.95C23.1431 23.523 24.2036 24.65 25.4501 24.65C26.6966 24.65 27.7571 23.523 28.1501 21.95" stroke="black" stroke-width="1.5" stroke-linecap="round"/>
</svg>
