<svg width="50" height="50" viewBox="0 0 50 50" fill="none" xmlns="http://www.w3.org/2000/svg">
<circle cx="25" cy="25" r="25" fill="black"/>
<g clip-path="url(#clip0_2_13)">
<path d="M27.802 19.3611C28.6159 19.5199 29.364 19.918 29.9504 20.5044C30.5368 21.0908 30.9349 21.8389 31.0937 22.6528M27.802 16.0278C29.4931 16.2157 31.07 16.9729 32.2739 18.1753C33.4777 19.3777 34.237 20.9536 34.427 22.6445M33.5937 29.2945V31.7945C33.5946 32.0266 33.5471 32.2563 33.4541 32.4689C33.3611 32.6816 33.2247 32.8725 33.0537 33.0294C32.8827 33.1863 32.6808 33.3057 32.461 33.3801C32.2411 33.4544 32.0081 33.482 31.777 33.4611C29.2127 33.1825 26.7495 32.3063 24.5853 30.9028C22.5719 29.6234 20.8648 27.9163 19.5853 25.9028C18.177 23.7288 17.3005 21.2536 17.027 18.6778C17.0062 18.4474 17.0336 18.2151 17.1074 17.9958C17.1813 17.7765 17.3 17.575 17.456 17.4042C17.612 17.2333 17.8018 17.0967 18.0135 17.0032C18.2251 16.9097 18.4539 16.8614 18.6853 16.8611H21.1853C21.5898 16.8572 21.9818 17.0004 22.2885 17.2641C22.5951 17.5278 22.7954 17.894 22.852 18.2945C22.9575 19.0945 23.1532 19.8801 23.4353 20.6361C23.5475 20.9344 23.5717 21.2586 23.5053 21.5702C23.4388 21.8818 23.2844 22.1679 23.0603 22.3945L22.002 23.4528C23.1883 25.5391 24.9157 27.2665 27.002 28.4528L28.0603 27.3945C28.2869 27.1704 28.573 27.016 28.8846 26.9495C29.1962 26.8831 29.5204 26.9073 29.8187 27.0195C30.5747 27.3016 31.3603 27.4973 32.1603 27.6028C32.5651 27.6599 32.9348 27.8638 33.1991 28.1757C33.4634 28.4876 33.6038 28.8858 33.5937 29.2945Z" stroke="white" stroke-width="2" stroke-linecap="round" stroke-linejoin="round"/>
</g>
<defs>
<clipPath id="clip0_2_13">
<rect width="20" height="20" fill="white" transform="translate(15.2603 15.1945)"/>
</clipPath>
</defs>
</svg>
