<svg width="233" height="281" viewBox="0 0 233 281" fill="none" xmlns="http://www.w3.org/2000/svg">
<g clip-path="url(#clip0_10_3)">
<path d="M2.57602 143.805C90.131 142.37 164.576 200.439 186.625 280.241C192.896 271.975 198.594 263.29 203.679 254.246C207.838 246.822 211.59 239.177 214.919 231.346C173.676 159.34 87.098 121.172 2.57602 143.805Z" fill="#A7A7A7" fill-opacity="0.4"/>
<path d="M2.03102 140.622C37.809 119.433 79.5669 110.611 120.858 115.518C162.149 120.425 200.676 138.787 230.492 167.771C231.718 157.5 232.259 147.159 232.114 136.816C231.976 128.32 231.348 119.839 230.236 111.416C158.09 69.4777 63.824 79.2358 2.03603 140.616" fill="#A7A7A7" fill-opacity="0.4"/>
<path d="M-0.00100708 138.109C42.545 62.4399 130.634 27.6799 211.571 48.6889C207.438 39.1873 202.681 29.9695 197.331 21.0959C192.911 13.7964 188.078 6.75463 182.857 0.00491333C99.202 -0.625087 22.421 54.4439 -0.00198364 138.105" fill="#A7A7A7" fill-opacity="0.4"/>
</g>
<defs>
<clipPath id="clip0_10_3">
<rect width="232.144" height="280.241" fill="white"/>
</clipPath>
</defs>
</svg>
