<svg xmlns="http://www.w3.org/2000/svg" width="232.144" height="280.241" viewBox="0 0 232.144 280.241">
  <g id="roue" transform="translate(230.138 4256.612) rotate(180)">
    <path id="Tracé_25" data-name="Tracé 25" d="M712.5,518.018c-87.555,1.435-162-56.634-184.049-136.436a227.281,227.281,0,0,0-17.054,25.995,234.585,234.585,0,0,0-11.24,22.9C541.4,502.483,627.978,540.651,712.5,518.018" transform="translate(-484.938 3594.789)" fill="#f0f0f0"/>
    <path id="Tracé_26" data-name="Tracé 26" d="M728.791,418.367A189.344,189.344,0,0,1,500.33,391.218a233.582,233.582,0,0,0-1.622,30.955,221.59,221.59,0,0,0,1.878,25.4c72.146,41.938,166.412,32.18,228.2-29.2" transform="translate(-500.684 3697.623)" fill="#f0f0f0"/>
    <path id="Tracé_27" data-name="Tracé 27" d="M712.013,393.759c-42.546,75.669-130.635,110.429-211.572,89.42a234.969,234.969,0,0,0,14.24,27.593,224.648,224.648,0,0,0,14.474,21.091c83.655.63,160.436-54.439,182.859-138.1" transform="translate(-481.874 3724.744)" fill="#f0f0f0"/>
  </g>
</svg>
