<svg width="233" height="281" viewBox="0 0 233 281" fill="none" xmlns="http://www.w3.org/2000/svg">
<g clip-path="url(#clip0_11_8)">
<path d="M229.568 136.436C142.013 137.871 67.568 79.8023 45.519 0.000274658C39.2476 8.26586 33.5496 16.9512 28.465 25.9953C24.3057 33.4191 20.5535 41.0637 17.225 48.8953C58.468 120.901 145.046 159.069 229.568 136.436Z" fill="#A7A7A7" fill-opacity="0.4"/>
<path d="M230.113 139.619C194.335 160.808 152.577 169.63 111.286 164.723C69.9953 159.816 31.4678 141.454 1.65195 112.47C0.426476 122.741 -0.115363 133.082 0.0299688 143.425C0.168474 151.921 0.7955 160.402 1.90796 168.825C74.054 210.763 168.32 201.005 230.108 139.625" fill="#A7A7A7" fill-opacity="0.4"/>
<path d="M232.145 142.132C189.599 217.801 101.51 252.561 20.573 231.552C24.7061 241.054 29.4631 250.271 34.813 259.145C39.2332 266.445 44.0657 273.486 49.287 280.236C132.942 280.866 209.723 225.797 232.146 142.136" fill="#A7A7A7" fill-opacity="0.4"/>
</g>
<defs>
<clipPath id="clip0_11_8">
<rect width="232.144" height="280.241" fill="white" transform="matrix(-1 0 0 -1 232.144 280.241)"/>
</clipPath>
</defs>
</svg>
