<svg width="50" height="50" viewBox="0 0 50 50" fill="none" xmlns="http://www.w3.org/2000/svg">
<circle cx="25" cy="25" r="25" fill="black"/>
<circle cx="24.9999" cy="25" r="20" transform="rotate(91.008 24.9999 25)" fill="white"/>
<path d="M26.8268 30.5485L26.7816 29.7969L26.8268 30.5485ZM21.7721 21.3561L21.7151 22.107C21.9177 22.1225 22.1178 22.054 22.2694 21.9175C22.4209 21.7809 22.5109 21.5881 22.5184 21.3833L21.7721 21.3561ZM30.2619 27.4538L30.9975 27.5836L30.2619 27.4538ZM26.7816 29.7969C25.3079 29.8884 23.8062 30.0649 22.3358 29.8929C20.9038 29.7254 19.5855 29.2312 18.5126 28.0201L17.3982 29.0241C18.7812 30.5853 20.4812 31.1924 22.1623 31.3891C23.805 31.5813 25.511 31.3848 26.8721 31.3002L26.7816 29.7969ZM18.5126 28.0201C17.4705 26.8436 17.262 25.2707 17.7876 24.061C18.2922 22.8993 19.5376 21.9412 21.7151 22.107L21.829 20.6051C19.1017 20.3973 17.2108 21.636 16.4194 23.4577C15.6489 25.2313 15.9845 27.4281 17.3982 29.0241L18.5126 28.0201ZM26.8721 31.3002C27.3635 31.2697 27.9042 31.2346 28.3979 31.1336C28.8913 31.0326 29.42 30.8508 29.8442 30.4686L28.8496 29.3457C28.7085 29.4728 28.4773 29.5806 28.102 29.6575C27.7271 29.7342 27.2905 29.7652 26.7816 29.7969L26.8721 31.3002ZM30.9975 27.5836C31.2337 26.2293 31.6189 24.5417 31.6141 22.874C31.6091 21.1674 31.2018 19.3955 29.8188 17.8343L28.7044 18.8383C29.7773 20.0495 30.1161 21.426 30.1203 22.8798C30.1247 24.3726 29.7821 25.8576 29.5264 27.3241L30.9975 27.5836ZM29.8188 17.8343C28.4051 16.2384 26.2782 15.6554 24.4441 16.2283C22.5603 16.8168 21.1273 18.5725 21.0257 21.3288L22.5184 21.3833C22.5996 19.1826 23.6835 18.0423 24.8848 17.6671C26.1358 17.2763 27.6623 17.6619 28.7044 18.8383L29.8188 17.8343ZM29.5264 27.3241C29.438 27.8305 29.3585 28.2645 29.2407 28.6316C29.1229 28.999 28.9906 29.2187 28.8496 29.3457L29.8442 30.4686C30.2685 30.0864 30.507 29.577 30.6619 29.0939C30.817 28.6106 30.9122 28.0726 30.9975 27.5836L29.5264 27.3241Z" fill="black"/>
</svg>
