<svg width="157" height="49" viewBox="0 0 157 49" fill="none" xmlns="http://www.w3.org/2000/svg">
<path d="M0.88 1.28H13.424L23.344 35.52L25.84 44.928L28.4 35.392L38.32 1.28H50.608V48H39.664V17.92L39.92 4.544L36.208 17.984L27.504 48H24.048L15.344 18.048L11.632 4.544L11.824 17.92V48H0.88V1.28ZM55.1 26.176C55.1 11.328 63.932 0.639999 79.932 0.639999C90.748 0.639999 97.532 5.056 102.14 12.16L91.9 18.944C89.66 13.568 85.884 10.624 79.42 10.624C71.74 10.624 66.3 15.936 66.3 24.96C66.3 33.792 70.78 39.04 78.652 39.04C85.948 39.04 89.98 34.432 91.132 27.2V27.072H77.244V24.512H101.884V48H91.132V32.064C89.212 41.728 84.412 48.64 74.684 48.64C61.436 48.64 55.1 38.016 55.1 26.176ZM107.13 1.28H119.674L129.594 35.52L132.09 44.928L134.65 35.392L144.57 1.28H156.858V48H145.914V17.92L146.17 4.544L142.458 17.984L133.754 48H130.298L121.594 18.048L117.882 4.544L118.074 17.92V48H107.13V1.28Z" fill="black"/>
</svg>
